<svg width="44" height="43" viewBox="0 0 49 48" fill="none" xmlns="http://www.w3.org/2000/svg">
<path d="M49 24.0894C49 10.7838 38.0324 0 24.5 0C10.9676 0 0 10.7838 0 24.0894C0 35.3813 7.91465 44.8665 18.5855 47.473V31.448H13.5324V24.0894H18.5855V20.9183C18.5855 12.7222 22.3563 8.9206 30.5484 8.9206C32.0988 8.9206 34.7785 9.22172 35.8791 9.52284V16.1851C35.3049 16.1286 34.3 16.091 33.0463 16.091C29.0268 16.091 27.4764 17.5871 27.4764 21.4734V24.0894H35.4771L34.099 31.448H27.4668V48C39.602 46.5603 49 36.407 49 24.0894Z" fill="url(#paint0_linear_320_784)"/>
<defs>
<linearGradient id="paint0_linear_320_784" x1="24.5" y1="0" x2="24.5" y2="48" gradientUnits="userSpaceOnUse">
<stop stop-color="#008DFC"/>
<stop offset="1" stop-color="#005496"/>
</linearGradient>
</defs>
</svg>
