<svg width="48" height="38" viewBox="0 0 58 48" fill="none" xmlns="http://www.w3.org/2000/svg">
<path d="M52.0414 11.9683C52.0754 12.4876 52.0754 13.0185 52.0754 13.5379C52.0754 29.5456 40.1129 48 18.2496 48C11.5094 48 5.25625 46.0149 0 42.5641C0.951562 42.6795 1.88047 42.7141 2.86602 42.7141C8.42813 42.7141 13.5371 40.7983 17.6266 37.5436C12.4043 37.4282 8.02031 33.9428 6.51367 29.1416C7.25 29.257 7.98633 29.3263 8.75664 29.3263C9.82149 29.3263 10.8863 29.1762 11.8832 28.9108C6.43438 27.7913 2.35625 22.9094 2.35625 17.0233V16.8733C3.94219 17.7735 5.77734 18.339 7.72578 18.4083C4.51992 16.2385 2.42422 12.5222 2.42422 8.32123C2.42422 6.07069 3.01328 4.00481 4.04414 2.20438C9.90078 9.55614 18.6914 14.3573 28.5582 14.8767C28.377 13.9764 28.2637 13.0416 28.2637 12.1068C28.2637 5.43592 33.5652 0 40.1469 0C43.568 0 46.6605 1.46574 48.8356 3.82015C51.5203 3.30079 54.1031 2.28516 56.3801 0.900216C55.4965 3.71628 53.616 6.07069 51.1578 7.57105C53.548 7.3056 55.8703 6.63621 58 5.70137C56.3801 8.10195 54.3523 10.2371 52.0414 11.9683Z" fill="url(#paint0_linear_320_783)"/>
<defs>
<linearGradient id="paint0_linear_320_783" x1="29" y1="1.11635e-06" x2="-2" y2="51.5" gradientUnits="userSpaceOnUse">
<stop stop-color="#1E98F9"/>
<stop offset="1" stop-color="#125A93"/>
</linearGradient>
</defs>
</svg>
