<svg width="761" height="192" viewBox="0 0 761 192" fill="none" xmlns="http://www.w3.org/2000/svg">
<path d="M0 115V1.71999H5.76V115H0ZM11.52 115V1.71999H28.8V115H11.52ZM46.08 115V1.71999H57.6V115H46.08ZM17.472 131.704H22.272L40.896 164.728V131.704H46.464V132.28C46.08 132.536 45.888 132.856 45.888 133.24C45.76 133.496 45.696 134.072 45.696 134.968V176.248H41.856L22.08 141.304V176.248H17.472V131.704ZM63.375 115V1.71999H69.135V115H63.375ZM74.895 115V1.71999H80.655V115H74.895ZM97.935 115V1.71999H109.455V115H97.935ZM102.159 163.192H87.759L83.343 176.248H78.351L94.671 130.936H95.247L111.759 176.248H106.575L102.159 163.192ZM100.815 159.352L95.055 142.456L89.103 159.352H100.815ZM126.75 115V1.71999H132.51V115H126.75ZM138.27 115V1.71999H155.55V115H138.27ZM172.83 115V1.71999H184.35V115H172.83ZM144.222 131.704H149.022L167.646 164.728V131.704H173.214V132.28C172.83 132.536 172.638 132.856 172.638 133.24C172.51 133.496 172.446 134.072 172.446 134.968V176.248H168.606L148.83 141.304V176.248H144.222V131.704ZM190.125 115V1.71999H195.885V115H190.125ZM201.645 115V1.71999H213.165V115H201.645ZM230.445 115V1.71999H236.205V115H230.445ZM207.789 131.704H218.157C221.869 131.704 224.749 132.216 226.797 133.24C228.973 134.264 230.829 135.8 232.365 137.848C235.309 141.688 236.781 147.128 236.781 154.168C236.525 161.464 234.861 166.968 231.789 170.68C228.717 174.52 223.917 176.376 217.389 176.248H207.789V131.704ZM217.005 172.408C226.861 172.408 231.789 166.456 231.789 154.552C231.789 148.536 230.701 143.928 228.525 140.728C226.221 137.528 222.637 135.928 217.773 135.928H212.589V172.408H217.005ZM253.5 115V1.71999H265.02V115H253.5ZM270.78 115V1.71999H282.3V115H270.78ZM293.82 115V1.71999H305.34V115H293.82ZM316.875 115V1.71999H322.635V115H316.875ZM328.395 115V1.71999H339.915V115H328.395ZM357.195 115V1.71999H374.475V115H357.195ZM342.603 153.976L338.955 157.816V176.248H333.771V131.704H339.723V132.28C339.467 132.536 339.275 132.856 339.147 133.24C339.019 133.496 338.955 134.072 338.955 134.968V152.248L357.579 131.512C358.731 131.64 359.947 131.704 361.227 131.704H363.147L346.251 150.904L364.299 176.248L357.963 176.44L342.603 153.976ZM380.25 115V1.71999H386.01V115H380.25ZM397.53 115V1.71999H403.29V115H397.53ZM409.05 115V1.71999H420.57V115H409.05ZM411.546 142.84C416.154 142.84 419.674 144.056 422.106 146.488C424.538 148.92 425.754 153.08 425.754 158.968V176.248H420.186V171.256C418.266 175.096 414.554 177.016 409.05 177.016C405.466 177.016 402.65 176.184 400.602 174.52C398.554 172.856 397.53 170.68 397.53 167.992C397.53 165.688 398.298 163.704 399.834 162.04C401.242 160.376 403.226 159.032 405.786 158.008C408.218 157.112 410.97 156.664 414.042 156.664C416.73 156.664 419.162 156.792 421.338 157.048C421.082 153.464 420.122 150.904 418.458 149.368C416.794 147.832 414.362 147.064 411.162 147.064C409.498 147.064 407.962 147.384 406.554 148.024C405.018 148.664 403.61 149.56 402.33 150.712L399.834 147.448C402.906 144.376 406.81 142.84 411.546 142.84ZM409.626 173.176C413.21 173.176 416.026 172.088 418.074 169.912C420.122 167.864 421.21 164.92 421.338 161.08C419.162 160.696 416.858 160.504 414.426 160.504C410.842 160.504 407.962 161.144 405.786 162.424C403.738 163.576 402.714 165.368 402.714 167.8C402.714 171.384 405.018 173.176 409.626 173.176ZM443.625 115V1.71999H449.385V115H443.625ZM472.425 115V1.71999H478.185V115H472.425ZM489.705 115V1.71999H501.225V115H489.705ZM474.153 177.016C471.849 177.016 469.673 176.312 467.625 174.904C465.577 173.624 463.913 171.704 462.633 169.144C461.353 166.456 460.713 163.256 460.713 159.544C460.713 155.832 461.353 152.696 462.633 150.136C464.041 147.704 465.769 145.848 467.817 144.568C469.865 143.416 472.041 142.84 474.345 142.84C476.649 142.84 478.569 143.288 480.105 144.184C481.769 145.208 483.049 146.616 483.945 148.408V128.824H489.321V129.208C489.065 129.592 488.873 129.912 488.745 130.168C488.745 130.552 488.745 131.128 488.745 131.896V171.256C488.745 172.408 488.809 173.304 488.937 173.944C488.937 174.712 489.129 175.48 489.513 176.248H484.521C484.137 175.48 483.881 174.712 483.753 173.944C483.753 173.304 483.753 172.408 483.753 171.256C482.729 173.048 481.385 174.456 479.721 175.48C478.057 176.504 476.201 177.016 474.153 177.016ZM474.921 172.408C477.865 172.408 480.041 171.256 481.449 168.952C482.857 166.648 483.561 163.576 483.561 159.736C483.561 155.896 482.793 152.824 481.257 150.52C479.721 148.216 477.481 147.064 474.537 147.064C471.721 147.064 469.545 148.088 468.009 150.136C466.473 152.312 465.705 155.192 465.705 158.776C465.705 163 466.473 166.328 468.009 168.76C469.673 171.192 471.977 172.408 474.921 172.408ZM507 115V1.71999H512.76V115H507ZM535.8 115V1.71999H547.32V115H535.8ZM553.08 115V1.71999H558.84V115H553.08ZM527.928 172.024H536.376V147.832H528.312V143.608H541.368V172.024H549.048V176.248H527.928V172.024ZM538.68 136.696C537.656 136.696 536.76 136.376 535.992 135.736C535.352 134.968 535.032 134.072 535.032 133.048C535.032 132.024 535.352 131.192 535.992 130.552C536.632 129.784 537.528 129.4 538.68 129.4C539.576 129.4 540.408 129.784 541.176 130.552C541.944 131.32 542.328 132.152 542.328 133.048C542.328 134.072 541.944 134.968 541.176 135.736C540.408 136.376 539.576 136.696 538.68 136.696ZM570.375 115V1.71999H593.415V115H570.375ZM599.175 115V1.71999H604.935V115H599.175ZM616.455 115V1.71999H622.215V115H616.455ZM616.647 143.608C615.879 147.448 614.279 152.184 611.847 157.816L603.975 176.248H599.943L587.079 143.608H592.263L602.247 169.144L607.623 157.048C609.799 152.184 611.207 147.704 611.847 143.608H616.647ZM633.75 115V1.71999H639.51V115H633.75ZM651.03 115V1.71999H656.79V115H651.03ZM662.55 115V1.71999H674.07V115H662.55ZM665.046 142.84C669.654 142.84 673.174 144.056 675.606 146.488C678.038 148.92 679.254 153.08 679.254 158.968V176.248H673.686V171.256C671.766 175.096 668.054 177.016 662.55 177.016C658.966 177.016 656.15 176.184 654.102 174.52C652.054 172.856 651.03 170.68 651.03 167.992C651.03 165.688 651.798 163.704 653.334 162.04C654.742 160.376 656.726 159.032 659.286 158.008C661.718 157.112 664.47 156.664 667.542 156.664C670.23 156.664 672.662 156.792 674.838 157.048C674.582 153.464 673.622 150.904 671.958 149.368C670.294 147.832 667.862 147.064 664.662 147.064C662.998 147.064 661.462 147.384 660.054 148.024C658.518 148.664 657.11 149.56 655.83 150.712L653.334 147.448C656.406 144.376 660.31 142.84 665.046 142.84ZM663.126 173.176C666.71 173.176 669.526 172.088 671.574 169.912C673.622 167.864 674.71 164.92 674.838 161.08C672.662 160.696 670.358 160.504 667.926 160.504C664.342 160.504 661.462 161.144 659.286 162.424C657.238 163.576 656.214 165.368 656.214 167.8C656.214 171.384 658.518 173.176 663.126 173.176ZM697.125 115V1.71999H702.885V115H697.125ZM714.405 115V1.71999H720.165V115H714.405ZM731.685 115V1.71999H754.725V115H731.685ZM734.949 142.84C738.405 142.84 741.285 144.056 743.589 146.488L741.285 150.328L741.093 151.096L740.517 150.712C740.389 150.2 740.261 149.816 740.133 149.56C739.877 149.176 739.429 148.792 738.789 148.408C737.637 147.64 736.229 147.256 734.565 147.256C732.901 147.256 731.301 147.704 729.765 148.6C728.229 149.368 727.013 150.648 726.117 152.44C725.093 154.232 724.581 156.408 724.581 158.968V176.248H719.397V143.608H724.773L724.581 149.56C725.477 147.512 726.885 145.848 728.805 144.568C730.725 143.416 732.773 142.84 734.949 142.84Z" fill="#52D3AE"/>
</svg>
